<?xml version="1.0" encoding="utf-8"?>
<!-- Generator: Adobe Illustrator 16.0.0, SVG Export Plug-In . SVG Version: 6.00 Build 0)  -->
<!DOCTYPE svg PUBLIC "-//W3C//DTD SVG 1.1//EN" "http://www.w3.org/Graphics/SVG/1.1/DTD/svg11.dtd">
<svg version="1.1" id="Layer_1" xmlns="http://www.w3.org/2000/svg" xmlns:xlink="http://www.w3.org/1999/xlink" x="0px" y="0px"
	 width="32px" height="32px" viewBox="0 0 32 32" enable-background="new 0 0 32 32" xml:space="preserve">
<path fill="#FFFFFF" d="M16,0C7.168,0,0,7.168,0,16s7.168,16,16,16s16-7.168,16-16S24.832,0,16,0z M8.112,26.048
	C8.8,24.607,12.992,23.2,16,23.2s7.216,1.407,7.889,2.848C21.712,27.775,18.977,28.8,16,28.8
	C13.024,28.8,10.288,27.775,8.112,26.048z M26.176,23.729C23.889,20.943,18.336,20,16,20s-7.888,0.943-10.176,3.729
	C4.192,21.584,3.2,18.912,3.2,16C3.2,8.944,8.944,3.2,16,3.2c7.057,0,12.8,5.744,12.8,12.8C28.8,18.912,27.809,21.584,26.176,23.729
	L26.176,23.729z M16,6.4c-3.104,0-5.6,2.496-5.6,5.6s2.496,5.6,5.6,5.6c3.104,0,5.6-2.496,5.6-5.6S19.104,6.4,16,6.4z M16,14.4
	c-1.328,0-2.4-1.072-2.4-2.4s1.072-2.4,2.4-2.4s2.4,1.072,2.4,2.4S17.328,14.4,16,14.4z"/>
</svg>
